<svg width="13" height="14" viewBox="0 0 13 14" fill="none" xmlns="http://www.w3.org/2000/svg">
<g clip-path="url(#clip0)">
<path d="M11.2482 0H1.7519C0.784438 0 0.00012207 0.836959 0.00012207 1.86943V12.0036C0.00012207 13.0361 0.784406 13.873 1.7519 13.873H6.43544L6.44342 8.91557H5.23653C5.07968 8.91557 4.95238 8.78023 4.95178 8.61285L4.94599 7.01485C4.94539 6.84656 5.07307 6.70979 5.23077 6.70979H6.43547V5.16572C6.43547 3.37383 7.46097 2.39814 8.95884 2.39814H10.188C10.3452 2.39814 10.4727 2.53419 10.4727 2.70205V4.04949C10.4727 4.21727 10.3453 4.35329 10.1881 4.35339L9.43383 4.35377C8.61924 4.35377 8.4615 4.76685 8.4615 5.37307V6.70982H10.2514C10.422 6.70982 10.5543 6.86875 10.5342 7.0495L10.3567 8.6475C10.3398 8.80042 10.2182 8.91564 10.074 8.91564H8.46948L8.4615 13.8731H11.2483C12.2157 13.8731 13 13.0362 13 12.0037V1.86943C13 0.836959 12.2157 0 11.2482 0Z" fill="#7B8899"/>
</g>
<defs>
<clipPath id="clip0">
<rect width="13" height="13.8731" fill="white"/>
</clipPath>
</defs>
</svg>
