<svg width="14" height="14" viewBox="0 0 14 14" fill="none" xmlns="http://www.w3.org/2000/svg">
<path d="M12.3705 0H1.3745C0.618523 0 0 0.63 0 1.4V12.6C0 13.37 0.618523 14 1.3745 14H12.3705C13.1264 14 13.745 13.37 13.745 12.6V1.4C13.745 0.63 13.1264 0 12.3705 0ZM4.12349 11.9H2.06174V5.6H4.12349V11.9ZM3.09261 4.41C2.40537 4.41 1.85557 3.85 1.85557 3.15C1.85557 2.45 2.40537 1.89 3.09261 1.89C3.77986 1.89 4.32966 2.45 4.32966 3.15C4.32966 3.85 3.77986 4.41 3.09261 4.41ZM11.6832 11.9H9.62147V8.19C9.62147 7.63003 9.14039 7.14 8.5906 7.14C8.0408 7.14 7.55972 7.63003 7.55972 8.19V11.9H5.49798V5.6H7.55972V6.44C7.90335 5.88 8.65932 5.46 9.27784 5.46C10.5836 5.46 11.6832 6.58 11.6832 7.91V11.9Z" fill="#7B8899"/>
</svg>
