<svg width="14" height="14" viewBox="0 0 14 14" fill="none" xmlns="http://www.w3.org/2000/svg">
<g clip-path="url(#clip0)">
<path d="M14 2.63506C13.4794 2.86137 12.9246 3.01137 12.3462 3.08421C12.9412 2.73218 13.3954 2.17899 13.6089 1.51221C13.0541 1.83996 12.4416 2.07147 11.7889 2.20066C11.2621 1.64487 10.5114 1.30064 9.69238 1.30064C8.10337 1.30064 6.82412 2.5787 6.82412 4.1455C6.82412 4.37094 6.84338 4.58771 6.89062 4.79407C4.5045 4.67875 2.39313 3.54549 0.97475 1.81915C0.727125 2.24488 0.581875 2.73218 0.581875 3.25675C0.581875 4.24174 1.09375 5.11488 1.85675 5.62039C1.39562 5.61171 0.94325 5.47905 0.56 5.27009C0.56 5.27876 0.56 5.29003 0.56 5.3013C0.56 6.68341 1.55487 7.83141 2.8595 8.09587C2.62587 8.15917 2.37125 8.18951 2.107 8.18951C1.92325 8.18951 1.73775 8.17911 1.56362 8.14096C1.9355 9.26728 2.99075 10.0953 4.2455 10.1222C3.269 10.8792 2.02912 11.3352 0.686875 11.3352C0.4515 11.3352 0.22575 11.3248 0 11.2962C1.27137 12.1087 2.77813 12.5726 4.403 12.5726C9.6845 12.5726 12.572 8.2372 12.572 4.47932C12.572 4.3536 12.5676 4.23221 12.5615 4.11168C13.1311 3.7111 13.6097 3.2108 14 2.63506Z" fill="#7B8899"/>
</g>
<defs>
<clipPath id="clip0">
<rect width="14" height="13.8731" fill="white"/>
</clipPath>
</defs>
</svg>
